<svg id="Group_1363" data-name="Group 1363" xmlns="http://www.w3.org/2000/svg" width="136" height="99" viewBox="0 0 136 99">
  <path id="audi_logo" d="M18.13,2.5h.983a15.439,15.439,0,0,1,9.04,3.251A15.439,15.439,0,0,1,37.193,2.5H38.2a15.439,15.439,0,0,1,9.04,3.251A15.439,15.439,0,0,1,56.281,2.5h1.007a15.439,15.439,0,0,1,9.04,3.251A15.439,15.439,0,0,1,75.369,2.5h1.007A15.308,15.308,0,0,1,86.82,7a14.1,14.1,0,0,1-.353,20.339,15.581,15.581,0,0,1-20.138.9,15.6,15.6,0,0,1-19.088,0,15.6,15.6,0,0,1-19.088,0,15.581,15.581,0,0,1-20.138-.9A14.1,14.1,0,0,1,7.661,7,15.308,15.308,0,0,1,18.1,2.5Zm.908,2.831h-.859A12.32,12.32,0,0,0,9.8,8.952a11.345,11.345,0,0,0,.284,16.369,12.544,12.544,0,0,0,15.964.914,14.068,14.068,0,0,1-3.456-9A13.9,13.9,0,0,1,23.757,11.4a14.334,14.334,0,0,1,2.289-3.635A12.439,12.439,0,0,0,19.038,5.331Zm19.088,0h-.859a12.439,12.439,0,0,0-7.008,2.43A14.334,14.334,0,0,1,32.548,11.4a13.9,13.9,0,0,1,1.167,5.844,14.068,14.068,0,0,1-3.456,9,12.57,12.57,0,0,0,14.875,0,14.068,14.068,0,0,1-3.456-9A13.9,13.9,0,0,1,42.845,11.4a14.334,14.334,0,0,1,2.289-3.635A12.439,12.439,0,0,0,38.126,5.331Zm19.088,0h-.859a12.439,12.439,0,0,0-7.008,2.43A14.334,14.334,0,0,1,51.636,11.4,13.9,13.9,0,0,1,52.8,17.24a14.068,14.068,0,0,1-3.456,9,12.57,12.57,0,0,0,14.875,0,14.068,14.068,0,0,1-3.456-9A13.9,13.9,0,0,1,61.933,11.4a14.334,14.334,0,0,1,2.289-3.635A12.439,12.439,0,0,0,57.214,5.331Zm19.088,0h-.859a12.439,12.439,0,0,0-7.008,2.43A14.334,14.334,0,0,1,70.724,11.4a13.9,13.9,0,0,1,1.167,5.844,14.068,14.068,0,0,1-3.456,9A12.544,12.544,0,0,0,84.4,25.321a11.345,11.345,0,0,0,.284-16.369A12.32,12.32,0,0,0,76.3,5.331Zm-48.149,18.9a11.311,11.311,0,0,0,2.614-7.042,11.186,11.186,0,0,0-.938-4.7,11.525,11.525,0,0,0-1.676-2.728,11.524,11.524,0,0,0-1.676,2.728,11.186,11.186,0,0,0-.938,4.7A11.311,11.311,0,0,0,28.153,24.234Zm38.176,0a11.311,11.311,0,0,0,2.614-7.042A11.186,11.186,0,0,0,68,12.49a11.524,11.524,0,0,0-1.676-2.728,11.525,11.525,0,0,0-1.676,2.728,11.186,11.186,0,0,0-.938,4.7A11.311,11.311,0,0,0,66.328,24.234Zm-19.088,0a11.311,11.311,0,0,0,2.614-7.042,11.186,11.186,0,0,0-.938-4.7A11.524,11.524,0,0,0,47.24,9.762a11.525,11.525,0,0,0-1.676,2.728,11.186,11.186,0,0,0-.938,4.7A11.311,11.311,0,0,0,47.24,24.234Z" transform="translate(20.5 32.5)" fill="#fff"/>
  <rect id="Rectangle_679" data-name="Rectangle 679" width="136" height="99" fill="none"/>
</svg>
