<svg id="Group_1364" data-name="Group 1364" xmlns="http://www.w3.org/2000/svg" width="136" height="99" viewBox="0 0 136 99">
  <g id="BMW-logo-grey-fallback-53px" transform="translate(33 14)">
    <g id="BMW-logo">
      <g id="BMW-logo-fallback">
        <g id="BMW_Grey-Colour_RGB-2" data-name="BMW Grey-Colour RGB-2">
          <g id="BMW_Grey-Colour_RGB" data-name="BMW Grey-Colour RGB">
            <path id="Shape" d="M35,0A35,35,0,1,0,70,35,35.06,35.06,0,0,0,35,0ZM67.755,35A32.755,32.755,0,1,1,35,2.245,32.749,32.749,0,0,1,67.755,35Z" fill="#fff"/>
            <g id="Group" transform="translate(9.507 4.322)">
              <path id="W" d="M40.16,17.97a19.721,19.721,0,0,1,1.585,1.849l7.132-4.491c-.4-.4-.925-1.189-1.321-1.585l-4.491,2.906-.264.264.264-.4,1.981-3.962L43.594,11.1l-3.962,1.981-.4.264.264-.264,2.906-4.491c-.528-.4-1.057-.792-1.717-1.321l-4.491,7c.528.4,1.321,1.057,1.849,1.453l4.226-2.245.264-.132-.264.264Z" transform="translate(2.104 -1.989)" fill="#fff"/>
              <path id="M" d="M28.409,10.272,30.39,5.914l.132-.4v.4l.264,5.811a13.17,13.17,0,0,1,2.113.264l-.264-8.453c-.925-.132-1.981-.132-2.906-.264L27.881,8.027l-.132.4-.132-.4L25.768,3.272a21.6,21.6,0,0,0-2.906.264L22.6,11.989a11.56,11.56,0,0,1,2.113-.264l.264-5.811v-.4l.132.4,1.981,4.358Z" transform="translate(-2.258 -3.272)" fill="#fff"/>
              <path id="B_22d" d="M17.764,15.484c1.057-1.189,1.717-2.509.66-3.83a2.465,2.465,0,0,0-2.509-.528h-.132v-.132a1.879,1.879,0,0,0-.66-2.113,1.736,1.736,0,0,0-1.585-.4c-1.057.132-1.849.792-4.094,3.3-.66.792-1.585,1.849-2.245,2.642l6.075,5.679C15.387,17.861,16.179,17.069,17.764,15.484ZM9.84,14.031c1.189-1.453,2.509-2.774,3.038-3.3a1.123,1.123,0,0,1,.66-.4.751.751,0,0,1,.925.528,1.1,1.1,0,0,1-.4,1.057c-.66.66-3.038,3.17-3.038,3.17Zm2.377,2.245s2.245-2.377,3.038-3.17c.264-.264.528-.528.66-.528a.842.842,0,0,1,.792,0,.588.588,0,0,1,.264.792,5.743,5.743,0,0,1-.528.925c-.264.4-3.038,3.17-3.038,3.3Z" transform="translate(-7.198 -1.616)" fill="#fff"/>
            </g>
            <path id="Path" d="M31.536,10.8V31.536H10.8A20.771,20.771,0,0,1,31.536,10.8Z" transform="translate(3.464 3.464)" fill="#0166b1"/>
            <path id="Path-2" data-name="Path" d="M47.236,26.5A20.687,20.687,0,0,1,26.5,47.236V26.5Z" transform="translate(8.5 8.5)" fill="#0166b1"/>
            <path id="Path-3" data-name="Path" d="M47.236,31.536H26.5V10.8A20.771,20.771,0,0,1,47.236,31.536Z" transform="translate(8.5 3.464)" fill="#fff"/>
            <path id="Path-4" data-name="Path" d="M31.536,47.236A20.687,20.687,0,0,1,10.8,26.5H31.536Z" transform="translate(3.464 8.5)" fill="#fff"/>
          </g>
        </g>
      </g>
    </g>
  </g>
  <rect id="Rectangle_680" data-name="Rectangle 680" width="136" height="99" fill="none"/>
</svg>
