<svg id="Group_1365" data-name="Group 1365" xmlns="http://www.w3.org/2000/svg" width="136" height="99" viewBox="0 0 136 99">
  <g id="layer1" transform="translate(19.267 29)">
    <path id="circle828" d="M47.3.028A20.741,20.741,0,0,0,29.819,9.612H0L2.969,12.58h25.3a20.732,20.732,0,0,0-1.139,3.458H6.427l2.932,2.932H26.651q-.085.9-.092,1.8.008.832.083,1.661H12.818l2.932,2.932H27.093a20.738,20.738,0,0,0,1.094,3.459H19.209l2.968,2.968h7.581a20.688,20.688,0,0,0,35.083,0h7.581l2.968-2.968H66.413a20.716,20.716,0,0,0,1.094-3.459H78.849l2.932-2.932H67.958q.075-.828.083-1.661-.007-.9-.092-1.8H85.241l2.932-2.932h-20.7A20.732,20.732,0,0,0,66.33,12.58h25.3L94.6,9.612H64.781A20.741,20.741,0,0,0,47.3.028Zm0,2.812a17.93,17.93,0,0,1,17.93,17.93h0A17.93,17.93,0,1,1,47.3,2.84ZM33.037,16.122v9.294h1.938V18.1l2.044,7.316h2.009L41.08,18.1v7.316h1.938V16.122h-3.13l-1.854,6.339-1.875-6.339Zm12,0v9.294h2.086V16.122Zm4.088,0v9.294h1.939v-6.06l4.166,6.06h2.094V16.122H55.389v6.206l-4.229-6.206Zm10.348,0v9.294h2.086V16.122Z" transform="translate(0 -0.028)" fill="#fff"/>
  </g>
  <rect id="Rectangle_681" data-name="Rectangle 681" width="136" height="99" fill="none"/>
</svg>
