<svg id="Group_1362" data-name="Group 1362" xmlns="http://www.w3.org/2000/svg" width="136" height="99" viewBox="0 0 136 99">
  <path id="vw_logo" d="M34.658,0H37.2A35.659,35.659,0,0,1,52.242,4.1,35.115,35.115,0,0,1,69.159,24.479a33.687,33.687,0,0,1,1.421,7.113,55.888,55.888,0,0,1,.1,5.7,34.513,34.513,0,0,1-4.6,15.232A34.992,34.992,0,0,1,37.176,70H34.284a42.564,42.564,0,0,1-4.4-.479A34.936,34.936,0,0,1,.78,36.425,14.934,14.934,0,0,1,.794,33.3c-.023-.96.164-1.9.2-2.86l.071-.087A34.839,34.839,0,0,1,15.285,6.562,35.209,35.209,0,0,1,34.658,0M32.585,3.386a8.372,8.372,0,0,1-1.13.145c-.563.114-1.137.174-1.7.295-.232.057-.468.1-.7.147-.191.051-.384.092-.578.135-.562.147-1.13.279-1.677.478-.078.02-.236.057-.316.075-.142.054-.285.108-.427.159l-.431.128c-.074.05-.148.1-.221.148.125.246.243.5.351.751.162.371.332.741.5,1.11.208.485.431.965.632,1.453.195.423.388.848.566,1.279.368.792.707,1.6,1.071,2.393,1.771,4,3.571,7.983,5.347,11.98.188.427.386.849.568,1.279s.383.851.572,1.278a3.172,3.172,0,0,0,.734,1.266,2.675,2.675,0,0,0,.67-1.15c.215-.462.418-.929.623-1.4,1.928-4.327,3.874-8.648,5.8-12.977.188-.427.381-.851.568-1.278s.381-.852.568-1.279.38-.852.568-1.281q.307-.7.616-1.4c.188-.428.383-.852.565-1.282.12-.26.238-.522.371-.777-.221-.084-.434-.181-.653-.263-.147-.046-.29-.094-.434-.144l-.316-.08c-.548-.195-1.115-.32-1.675-.478-.427-.083-.852-.181-1.273-.289-.569-.092-1.141-.171-1.706-.287A8.032,8.032,0,0,1,38.9,3.385c-.71-.065-1.427-.027-2.131-.148-1.4-.073-2.787.094-4.18.149M20.027,7.455A33.519,33.519,0,0,0,9.15,17.809a3.906,3.906,0,0,0,.4.966c.215.417.414.842.619,1.263.235.474.47.948.711,1.419,2.48,5.04,5.017,10.053,7.487,15.1.07.132.138.265.206.4.283.571.566,1.144.844,1.719q2.917,5.882,5.846,11.758a.512.512,0,0,0,.534.341c.219-.4.414-.822.595-1.245.157-.393.333-.777.5-1.165.162-.37.317-.743.481-1.113.166-.39.344-.774.5-1.167.166-.367.326-.738.487-1.11q1.861-4.275,3.745-8.541a.78.78,0,0,1,.792-.5q2.847,0,5.7,0a.8.8,0,0,1,.807.555c1.239,2.827,2.487,5.65,3.713,8.483.162.371.323.743.491,1.111.159.391.334.777.5,1.164.162.37.317.744.478,1.115.367.79.654,1.618,1.088,2.375l.347.011c1.575-3.026,3.058-6.1,4.59-9.154,3.408-6.912,6.851-13.807,10.275-20.71.266-.5.489-1.027.76-1.528a9.174,9.174,0,0,1,.768-1.444c-.287-.351-.529-.733-.785-1.1A33.21,33.21,0,0,0,51.471,7.46a1.46,1.46,0,0,0-.481-.2q-2.646,5.831-5.266,11.677c-.225.522-.472,1.033-.693,1.555-.165.373-.333.744-.507,1.113-.208.487-.43.967-.633,1.456q-.322.694-.63,1.393-1.8,4.031-3.624,8.053a4.5,4.5,0,0,1-.43.845,1.234,1.234,0,0,1-.9.248c-1.76-.006-3.52,0-5.279,0a.875.875,0,0,1-.915-.505q-1.955-4.315-3.891-8.636-.309-.7-.626-1.394c-.208-.487-.431-.965-.646-1.447-.208-.467-.413-.933-.62-1.4-1.921-4.337-3.911-8.645-5.825-12.984-.161.07-.323.139-.478.225M65.384,23.924c-.635,1.39-1.354,2.74-2.016,4.118-.193.378-.384.757-.568,1.14s-.374.758-.558,1.14l-.218.407c-.067.147-.135.293-.2.438l-.147.295c-.071.134-.141.27-.211.405-.11.25-.23.5-.349.741-2.319,4.7-4.687,9.368-7,14.066l-.141.283c-.1.188-.191.38-.285.572s-.189.378-.279.572-.191.376-.28.568c-.034.071-.1.215-.139.286l-.206.4c-.229.478-.471.949-.7,1.426-1.737,3.551-3.517,7.081-5.289,10.615a1.111,1.111,0,0,1-1.591.552c-.585-.411-.726-1.167-1.024-1.773-.213-.462-.421-.929-.625-1.4-2.107-4.758-4.244-9.5-6.358-14.258-.186-.428-.386-.851-.566-1.282s-.393-.852-.549-1.295a.389.389,0,0,0-.545-.157,17.621,17.621,0,0,0-.743,1.625C32.655,48.2,30.5,52.986,28.378,57.787c-.166.367-.334.736-.5,1.1-.2.487-.427.963-.633,1.45a10.831,10.831,0,0,1-.608,1.271,1.107,1.107,0,0,1-1.288.424,1.386,1.386,0,0,1-.71-.736c-1.76-3.55-3.55-7.085-5.3-10.64-.09-.191-.184-.38-.276-.568-.182-.383-.373-.761-.565-1.138-.036-.071-.105-.215-.141-.287-.09-.191-.188-.377-.283-.565s-.186-.38-.283-.568c-.07-.155-.141-.307-.213-.46-.118-.228-.232-.455-.347-.683-.141-.286-.279-.572-.427-.854-2.309-4.707-4.7-9.375-7-14.086-.034-.073-.105-.216-.141-.287-.161-.339-.33-.673-.5-1.01s-.327-.653-.5-.976c-.065-.151-.134-.3-.2-.451-.073-.132-.142-.265-.212-.4C7.547,26.884,6.835,25.437,6.11,24a6.9,6.9,0,0,0-.556,1.43A31.46,31.46,0,0,0,7.629,49.509c.014.038.043.117.058.155.367.633.707,1.282,1.1,1.9a32.251,32.251,0,0,0,14.74,12.721c.238.1.474.194.713.286.175.073.351.139.528.212.2.068.405.142.609.212l.427.155c.142.046.285.091.428.135.366.115.737.212,1.1.327.566.152,1.137.289,1.707.425.236.041.474.085.709.139s.478.091.716.149a29.674,29.674,0,0,0,3.44.356,16.674,16.674,0,0,0,3.544.009,26.671,26.671,0,0,0,3.575-.374c.238-.057.478-.1.719-.138.235-.057.472-.1.711-.141.569-.138,1.14-.273,1.706-.425.364-.115.733-.215,1.1-.33.145-.053.289-.1.435-.152l.3-.081c.421-.161.847-.312,1.266-.477l.711-.292A32.239,32.239,0,0,0,65.843,44.811a31.18,31.18,0,0,0-.458-20.887Z" transform="translate(32.298 14)" fill="#fff"/>
  <rect id="Rectangle_678" data-name="Rectangle 678" width="136" height="99" fill="none"/>
</svg>
