<svg width="47" height="47" viewBox="0 0 47 47" fill="none" xmlns="http://www.w3.org/2000/svg">
<rect width="47" height="47" fill="#A69B90"/>
<path d="M22.403 19.0341V13.9256L13.8108 19.6445L17.6479 22.2057L22.403 19.0341ZM34.0658 25.3543V21.6916L31.3211 23.5229L34.0658 25.3543ZM23.5 2.9375C12.1447 2.9375 2.9375 12.1447 2.9375 23.5C2.9375 34.8553 12.1447 44.0625 23.5 44.0625C34.8553 44.0625 44.0625 34.8553 44.0625 23.5C44.0625 12.1447 34.8553 2.9375 23.5 2.9375ZM36.2598 27.4014C36.2598 27.4519 36.2552 27.4978 36.2506 27.5437C36.2506 27.562 36.246 27.5758 36.2414 27.5896C36.2349 27.6398 36.2226 27.6891 36.2047 27.7364C36.1955 27.764 36.1863 27.7915 36.1772 27.8145C36.168 27.8328 36.1588 27.8512 36.1542 27.8695C36.1404 27.8925 36.1313 27.92 36.1175 27.943C36.1083 27.9613 36.0991 27.9751 36.0854 27.9935C36.0716 28.0164 36.0532 28.0394 36.0395 28.0623C36.0257 28.0807 36.0165 28.0944 36.0027 28.1082C35.9844 28.1266 35.966 28.1495 35.9477 28.1679C35.9339 28.1816 35.9201 28.1954 35.9018 28.2092C35.8834 28.2275 35.8604 28.2459 35.8375 28.2597C35.8191 28.2734 35.8054 28.2872 35.787 28.2964C35.7824 28.301 35.7732 28.3056 35.7687 28.3102L24.1059 36.0762C23.9223 36.2001 23.7111 36.2598 23.5 36.2598C23.2843 36.2598 23.0731 36.1955 22.8896 36.0762L11.2268 28.3147C11.2222 28.3102 11.213 28.3056 11.2084 28.301L11.1579 28.2643C11.135 28.2459 11.1166 28.2321 11.0982 28.2138C11.0845 28.2 11.0707 28.1862 11.0523 28.1725C11.034 28.1541 11.0156 28.1357 10.9973 28.1128C10.9836 28.0986 10.9714 28.0833 10.9605 28.0669C10.9422 28.0439 10.9284 28.021 10.9146 27.998C10.9055 27.9797 10.8917 27.9659 10.8825 27.9476C10.8688 27.9246 10.855 27.8971 10.8458 27.8741C10.8366 27.8558 10.8274 27.8374 10.8229 27.819C10.8137 27.7915 10.8045 27.764 10.7953 27.741C10.7907 27.7227 10.7815 27.7043 10.777 27.6859C10.7678 27.6538 10.7632 27.6263 10.7586 27.5941C10.754 27.5804 10.754 27.562 10.7494 27.5482C10.7448 27.5023 10.7402 27.4519 10.7402 27.406V19.6399C10.7402 19.594 10.7448 19.5436 10.7494 19.4977C10.754 19.4839 10.754 19.4655 10.7586 19.4518C10.7651 19.4015 10.7774 19.3522 10.7953 19.3049C10.8045 19.2773 10.8137 19.2498 10.8229 19.2269C10.832 19.2085 10.8412 19.1901 10.8458 19.1718C10.855 19.1488 10.8688 19.1213 10.8825 19.0983C10.8917 19.08 10.9009 19.0662 10.9146 19.0479C10.9422 19.0065 10.9697 18.9698 10.9973 18.9331C11.0156 18.9147 11.034 18.8918 11.0523 18.8734C11.0661 18.8597 11.0799 18.8459 11.0982 18.8321C11.1166 18.8138 11.1396 18.7954 11.1579 18.7816C11.1763 18.7679 11.19 18.7541 11.2084 18.7449C11.213 18.7403 11.2222 18.7357 11.2268 18.7312L22.8896 10.9697C23.2567 10.7265 23.7387 10.7265 24.1059 10.9697L35.7687 18.7312C35.7732 18.7357 35.7824 18.7403 35.787 18.7449L35.8375 18.7816L35.9018 18.8321C35.9155 18.8459 35.9293 18.8597 35.9477 18.8734C35.966 18.8918 35.9844 18.9102 36.0027 18.9331C36.0349 18.9698 36.0624 19.0065 36.0854 19.0479C36.0945 19.0662 36.1083 19.08 36.1175 19.0983C36.1313 19.1213 36.145 19.1442 36.1542 19.1718C36.1634 19.1901 36.1726 19.2085 36.1772 19.2269C36.1863 19.2544 36.1955 19.2819 36.2047 19.3049C36.2093 19.3232 36.2185 19.3416 36.223 19.36C36.2322 19.3921 36.2368 19.4196 36.2414 19.4518C36.246 19.4655 36.246 19.4839 36.2506 19.4977C36.2552 19.5436 36.2598 19.594 36.2598 19.6399V27.4014ZM24.597 28.0118V33.1203L33.1892 27.4014L29.3521 24.8402L24.597 28.0118ZM12.9342 21.6916V25.3543L15.6789 23.5229L12.9342 21.6916ZM23.5 20.9343L19.6216 23.5229L23.5 26.1116L27.3784 23.5229L23.5 20.9343ZM33.1892 19.6445L24.597 13.9256V19.0341L29.3521 22.2057L33.1892 19.6445ZM17.6479 24.8402L13.8108 27.4014L22.403 33.1203V28.0118L17.6479 24.8402Z" fill="#A74D4D"/>
</svg>
